<svg xmlns="http://www.w3.org/2000/svg" viewBox="0 0 1600 1200">
  <rect width="1600" height="1200" fill="#07111f"/>
  <rect x="0" y="0" width="1600" height="1200" fill="url(#g1)"/>
  <circle cx="1290" cy="250" r="220" fill="#4cc9f0" opacity="0.16"/>
  <circle cx="360" cy="980" r="300" fill="#7b61ff" opacity="0.16"/>
  <g opacity="0.16" stroke="#8fd9ff" stroke-width="2">
    <path d="M180 840 C420 640, 700 640, 940 780 S1320 940, 1460 760" />
    <path d="M140 520 C260 380, 460 360, 620 460 S910 600, 1100 500" />
  </g>
  <g fill="none" stroke="#68d7ff" stroke-width="6" opacity="0.55">
    <rect x="260" y="300" width="220" height="140" rx="20"/>
    <rect x="520" y="310" width="220" height="140" rx="20"/>
    <rect x="780" y="300" width="220" height="140" rx="20"/>
    <path d="M480 370h40"/>
    <path d="M740 370h40"/>
    <path d="M1000 370h40"/>
  </g>
  <defs>
    <linearGradient id="g1" x1="0%" y1="0%" x2="100%" y2="100%">
      <stop offset="0%" stop-color="#13294b"/>
      <stop offset="100%" stop-color="#0a1425"/>
    </linearGradient>
  </defs>
</svg>
